<svg xmlns="http://www.w3.org/2000/svg" width="161" height="50" viewBox="0 0 161 50" fill="none"><path d="M42.9639 0.0384064H47.7816V27.1631H42.9639V0.0384064Z" fill="#3E5B49"></path><path d="M58.1396 0.0384064H62.9573V23.3711H82.0952V27.1631H58.1396V0.0384064Z" fill="#3E5B49"></path><path d="M89.8643 0.0384064H117.425V3.75571H94.6737V11.3895H117.425V15.0321H94.6737V23.4458H117.425V27.1631H89.8643V0.0384064Z" fill="#3E5B49"></path><path d="M32.598 0.0634766H28.1624V22.7905C24.9977 22.7822 16.6581 22.2262 10.8685 16.8743C7.01436 13.3147 4.92115 8.20337 4.63043 1.6732V0.0717721H0.194824V27.155H4.63043V16.2686C5.57736 17.6626 6.68211 18.9404 7.93637 20.0938C14.839 26.4497 24.275 27.1467 28.1043 27.1467C28.2455 27.1467 28.3701 27.1467 28.4947 27.1467H32.6063V0.0634766H32.598Z" fill="#3E5B49"></path><path d="M127.792 27.1465H132.227V4.42782C135.392 4.43612 143.731 4.99205 149.521 10.344C153.375 13.9036 155.468 19.0149 155.759 25.5451V27.1465H160.195V0.0633087H155.759V10.9414C154.812 9.54741 153.707 8.26959 152.453 7.11623C145.551 0.760303 136.115 0.0633087 132.285 0.0633087C132.144 0.0633087 132.019 0.0633087 131.895 0.0633087H127.792V27.1465Z" fill="#3E5B49"></path><path d="M102.663 47.4392C102.072 47.4392 101.595 47.2667 101.233 46.9217C100.875 46.5767 100.696 46.0441 100.696 45.3239V39.0426H101.886V40.9056H103.743V41.9148H101.886V45.0263C101.886 45.5093 101.973 45.85 102.145 46.0484C102.322 46.2425 102.579 46.3395 102.915 46.3395C103.066 46.3395 103.208 46.3223 103.342 46.2878C103.48 46.2533 103.601 46.208 103.704 46.1519L103.95 47.1287C103.773 47.2236 103.573 47.2991 103.348 47.3551C103.124 47.4112 102.896 47.4392 102.663 47.4392ZM99.2471 41.9148V40.9056H100.877V41.9148H99.2471Z" fill="#3E5B49"></path><path d="M91.8315 49.9621V40.9056H92.9248V41.8565C93.1879 41.5202 93.5178 41.2463 93.9145 41.035C94.3156 40.8194 94.8202 40.7115 95.4282 40.7115C96.0579 40.7115 96.6121 40.8603 97.0907 41.1579C97.5694 41.4512 97.9425 41.8522 98.2099 42.3611C98.4816 42.87 98.6174 43.4414 98.6174 44.0754C98.6174 44.5368 98.5398 44.9724 98.3845 45.3821C98.2336 45.7875 98.0158 46.1454 97.7312 46.4559C97.4465 46.7621 97.108 47.0036 96.7156 47.1804C96.3274 47.3529 95.894 47.4392 95.4153 47.4392C94.8805 47.4392 94.4126 47.34 94.0116 47.1416C93.6148 46.9389 93.2827 46.6737 93.0154 46.3459V49.9621H91.8315ZM95.2148 46.3654C95.6417 46.3654 96.0191 46.2726 96.3468 46.0872C96.6789 45.8974 96.9377 45.6322 97.1231 45.2915C97.3128 44.9465 97.4077 44.5411 97.4077 44.0754C97.4077 43.6053 97.3128 43.1999 97.1231 42.8592C96.9377 42.5142 96.6789 42.249 96.3468 42.0635C96.0191 41.8781 95.6417 41.7854 95.2148 41.7854C94.7878 41.7854 94.4083 41.8781 94.0762 42.0635C93.7485 42.249 93.4897 42.5142 93.3 42.8592C93.1102 43.1999 93.0154 43.6053 93.0154 44.0754C93.0154 44.5411 93.1102 44.9465 93.3 45.2915C93.4897 45.6322 93.7485 45.8974 94.0762 46.0872C94.4083 46.2726 94.7878 46.3654 95.2148 46.3654Z" fill="#3E5B49"></path><path d="M87.3682 47.4392C86.6954 47.4392 86.1025 47.299 85.5893 47.0187C85.0761 46.7384 84.675 46.3481 84.3861 45.8478C84.0971 45.3433 83.9526 44.7568 83.9526 44.0883C83.9526 43.6053 84.0346 43.1568 84.1985 42.7428C84.3666 42.3288 84.5995 41.9708 84.8971 41.6689C85.199 41.3671 85.5505 41.132 85.9515 40.9638C86.3569 40.7956 86.7968 40.7115 87.2712 40.7115C87.7844 40.7115 88.2415 40.8021 88.6426 40.9832C89.048 41.1644 89.3822 41.4188 89.6453 41.7466C89.9126 42.07 90.1045 42.4517 90.221 42.8916C90.3374 43.3271 90.3611 43.8015 90.2921 44.3147H85.13C85.117 44.7374 85.2033 45.1082 85.3887 45.4274C85.5742 45.7422 85.8416 45.988 86.1909 46.1648C86.5445 46.3416 86.9628 46.43 87.4458 46.43C87.7995 46.43 88.1445 46.374 88.4809 46.2619C88.8172 46.1497 89.1148 45.9837 89.3736 45.7637L89.8781 46.65C89.6711 46.8182 89.4253 46.9626 89.1407 47.0834C88.8604 47.1998 88.5671 47.2882 88.2609 47.3486C87.9547 47.409 87.6572 47.4392 87.3682 47.4392ZM85.1947 43.3897H89.1019C89.0846 42.8549 88.9186 42.4387 88.6038 42.1412C88.2889 41.8393 87.8383 41.6883 87.2518 41.6883C86.6825 41.6883 86.2124 41.8393 85.8416 42.1412C85.4707 42.4387 85.255 42.8549 85.1947 43.3897Z" fill="#3E5B49"></path><path d="M80.9306 47.4392C80.2621 47.4392 79.6692 47.2926 79.1516 46.9993C78.6341 46.706 78.2287 46.3071 77.9355 45.8026C77.6422 45.2937 77.4956 44.7179 77.4956 44.0754C77.4956 43.588 77.5819 43.1395 77.7544 42.7298C77.9312 42.3201 78.1792 41.9644 78.4983 41.6625C78.8174 41.3606 79.1905 41.1277 79.6174 40.9638C80.0487 40.7956 80.5187 40.7115 81.0276 40.7115C81.4416 40.7115 81.8233 40.7655 82.1726 40.8733C82.5219 40.9811 82.8454 41.1471 83.1429 41.3714L82.5349 42.29C82.3408 42.1218 82.1144 41.9967 81.8556 41.9148C81.5969 41.8285 81.323 41.7854 81.0341 41.7854C80.5597 41.7854 80.1479 41.8759 79.7985 42.0571C79.4535 42.2339 79.1861 42.4926 78.9964 42.8333C78.8066 43.174 78.7118 43.5837 78.7118 44.0624C78.7118 44.7826 78.9188 45.3476 79.3328 45.7573C79.7511 46.1627 80.316 46.3654 81.0276 46.3654C81.3554 46.3654 81.6616 46.3071 81.9462 46.1907C82.2308 46.0699 82.4637 45.9147 82.6448 45.7249L83.2594 46.6306C82.9273 46.8807 82.5629 47.0791 82.1661 47.2257C81.7694 47.368 81.3575 47.4392 80.9306 47.4392Z" fill="#3E5B49"></path><path d="M70.2642 47.2451V40.9056H71.4544V41.7595C71.7261 41.3886 72.0431 41.1212 72.4054 40.9574C72.7676 40.7935 73.1385 40.7115 73.518 40.7115C74.0916 40.7115 74.566 40.828 74.9412 41.0609C75.3207 41.2894 75.6031 41.5827 75.7886 41.9406C75.9783 42.2986 76.0732 42.6652 76.0732 43.0403V47.2451H74.8829V43.4091C74.8829 42.9304 74.7342 42.5466 74.4366 42.2576C74.139 41.9644 73.7336 41.8177 73.2204 41.8177C72.8841 41.8177 72.5822 41.8932 72.3148 42.0441C72.0517 42.1908 71.8426 42.3999 71.6873 42.6716C71.5321 42.9433 71.4544 43.256 71.4544 43.6096V47.2451H70.2642Z" fill="#3E5B49"></path><path d="M65.3587 47.4392C64.7032 47.4392 64.1188 47.2861 63.6056 46.9799C63.0924 46.6737 62.6892 46.2662 62.3959 45.7573C62.1027 45.2484 61.9561 44.6878 61.9561 44.0754C61.9561 43.6225 62.0401 43.1934 62.2083 42.7881C62.3765 42.3827 62.6137 42.0247 62.9199 41.7142C63.2261 41.3994 63.5862 41.1536 64.0002 40.9768C64.4142 40.8 64.8671 40.7115 65.3587 40.7115C66.0185 40.7115 66.605 40.8646 67.1182 41.1708C67.6314 41.477 68.0347 41.8846 68.3279 42.3935C68.6212 42.9023 68.7678 43.463 68.7678 44.0754C68.7678 44.5282 68.6837 44.9573 68.5155 45.3627C68.3473 45.7681 68.1101 46.126 67.8039 46.4365C67.4977 46.747 67.1376 46.9928 66.7236 47.174C66.3096 47.3508 65.8546 47.4392 65.3587 47.4392ZM65.3587 46.3654C65.7856 46.3654 66.163 46.2726 66.4907 46.0872C66.8228 45.8974 67.0837 45.6322 67.2735 45.2915C67.4632 44.9465 67.5581 44.5411 67.5581 44.0754C67.5581 43.6053 67.4632 43.1999 67.2735 42.8592C67.088 42.5142 66.8293 42.249 66.4972 42.0635C66.1651 41.8781 65.7856 41.7854 65.3587 41.7854C64.9317 41.7854 64.5522 41.8781 64.2202 42.0635C63.8924 42.249 63.6337 42.5142 63.4439 42.8592C63.2585 43.1999 63.1657 43.6053 63.1657 44.0754C63.1657 44.5411 63.2585 44.9465 63.4439 45.2915C63.6337 45.6322 63.8946 45.8974 64.2266 46.0872C64.5587 46.2726 64.9361 46.3654 65.3587 46.3654Z" fill="#3E5B49"></path><path d="M58.9345 47.4392C58.266 47.4392 57.6731 47.2926 57.1555 46.9993C56.638 46.706 56.2327 46.3071 55.9394 45.8026C55.6461 45.2937 55.4995 44.7179 55.4995 44.0754C55.4995 43.588 55.5858 43.1395 55.7583 42.7298C55.9351 42.3201 56.1831 41.9644 56.5022 41.6625C56.8213 41.3606 57.1944 41.1277 57.6213 40.9638C58.0526 40.7956 58.5226 40.7115 59.0315 40.7115C59.4455 40.7115 59.8272 40.7655 60.1765 40.8733C60.5258 40.9811 60.8493 41.1471 61.1468 41.3714L60.5388 42.29C60.3447 42.1218 60.1183 41.9967 59.8595 41.9148C59.6008 41.8285 59.3269 41.7854 59.038 41.7854C58.5636 41.7854 58.1518 41.8759 57.8024 42.0571C57.4574 42.2339 57.19 42.4926 57.0003 42.8333C56.8105 43.174 56.7157 43.5837 56.7157 44.0624C56.7157 44.7826 56.9227 45.3476 57.3367 45.7573C57.755 46.1627 58.3199 46.3654 59.0315 46.3654C59.3593 46.3654 59.6655 46.3071 59.9501 46.1907C60.2347 46.0699 60.4676 45.9147 60.6487 45.7249L61.2633 46.6306C60.9312 46.8807 60.5668 47.0791 60.17 47.2257C59.7733 47.368 59.3614 47.4392 58.9345 47.4392Z" fill="#3E5B49"></path></svg>