<svg xmlns="http://www.w3.org/2000/svg" width="320" height="280" viewBox="0 0 320 280" fill="none">
  <!-- Wertykalne fale — subtelny "wind/movement" -->
  <g stroke="#B7C9D3" stroke-width="1" fill="none" opacity="0.5">
    <path d="M40 0 C 60 70, 20 140, 40 210 C 60 240, 40 260, 40 280"/>
    <path d="M90 0 C 110 70, 70 140, 90 210 C 110 240, 90 260, 90 280"/>
    <path d="M140 0 C 160 70, 120 140, 140 210 C 160 240, 140 260, 140 280"/>
    <path d="M190 0 C 210 70, 170 140, 190 210 C 210 240, 190 260, 190 280"/>
    <path d="M240 0 C 260 70, 220 140, 240 210 C 260 240, 240 260, 240 280"/>
    <path d="M290 0 C 310 70, 270 140, 290 210 C 310 240, 290 260, 290 280"/>
  </g>
</svg>
