<svg xmlns="http://www.w3.org/2000/svg" width="208.23" height="54.37" data-name="Warstwa 2"><defs><clipPath id="a"><path d="M27.2 52.05c9.73 0 18.98.68 27.2 2.31V0H0v54.37c8.21-1.63 17.47-2.31 27.2-2.31Z" style="fill:none;stroke-width:0"></path></clipPath></defs><g data-name="Warstwa 1"><g style="clip-path:url(#a)"><path d="m0 54.37 54.4-.03V0H0v54.37z" style="fill:#003c71;stroke-width:0"></path><path d="M54.46 39.33h-3.53v-3.47h-3.64l-4.46-2.31v5.78h-2.31l-.01-16.2h-1.15v-5.78h-6.94v21.98H30.1V26.6h-2.31V9.25h-9.25v30.08h-2.32v-16.2H11.6v16.2H9.28v-5.78L3.5 35.78v3.55H-.05v1.16h4.71v-3.91l3.47-1.43v5.34h4.62v-16.2h2.32v16.2h4.62V10.41h6.94v17.35h2.32v12.73h4.62V18.51h4.63v5.78h1.16v16.2h4.63v-5.04L47 37.03l2.76-.03v3.49h4.7v-1.16z" style="fill:#fff;stroke-width:0"></path></g><path d="m74.09 17.36 7.17 11.07 7.17-11.07h3.49v22.01h-3.77V24.59l-6.89 10.47-6.89-10.47v14.78H70.6V17.36h3.49Zm35.57 14.5c0 .28 0 .85-.03 1.42H98.5c.28 1.32 1.82 3.02 4.18 3.02 2.61 0 4.09-1.51 4.09-1.51l1.89 2.83s-2.36 2.14-5.97 2.14c-4.53 0-8.02-3.46-8.02-7.83s3.18-7.83 7.48-7.83 7.52 3.18 7.52 7.77Zm-3.78-1.32c-.06-1.29-1.26-3.02-3.74-3.02s-3.52 1.7-3.65 3.02h7.39Zm12.33 9.21c-3.87 0-7.26-3.24-7.26-7.83s3.4-7.83 7.26-7.83c3.11 0 4.5 2.33 4.5 2.33v-2.33l3.49 1.75V39.5c0 5.19-3.84 7.48-8.02 7.48s-7.08-2.83-7.08-2.83l2.14-2.89s2.08 2.2 4.94 2.2 4.25-1.6 4.25-3.84v-1.79c-.5.63-1.86 1.92-4.21 1.92Zm4.21-10.06s-1.07-2.08-3.55-2.08-4.09 1.86-4.09 4.31 1.54 4.31 4.09 4.31 3.55-2.08 3.55-2.08v-4.47Zm20.16-.03v9.72h-3.49v-1.89s-1.54 2.26-4.91 2.26c-2.8 0-5.38-1.82-5.38-5 0-2.86 2.61-4.94 5.85-4.94 2.74 0 4.15 1.07 4.15 1.07v-.85c0-1.95-1.89-2.58-3.21-2.58-2.17 0-4.47 1.1-4.47 1.1l-1.23-3.11s2.77-1.35 5.88-1.35c4.28 0 6.79 2.17 6.79 5.57Zm-3.77 5.22v-1.54s-1.35-.75-3.4-.75c-1.16 0-2.77.5-2.77 2.11s1.54 1.92 2.7 1.92c2.26 0 3.46-1.73 3.46-1.73Zm9.93-10.41v1.95s1.42-2.33 4.5-2.33c3.87 0 7.26 3.24 7.26 7.83s-3.4 7.83-7.26 7.83c-2.36 0-3.71-1.29-4.21-1.92v8.77h-3.77V24.46h3.49Zm.29 9.68s1.07 2.08 3.55 2.08 4.09-1.86 4.09-4.31-1.54-4.31-4.09-4.31-3.55 2.08-3.55 2.08v4.47Zm29.14-2.23c0 4.37-3.52 7.83-7.96 7.83s-7.96-3.46-7.96-7.83 3.52-7.83 7.96-7.83 7.96 3.43 7.96 7.83Zm-3.83 0c0-2.33-1.57-4.31-4.12-4.31s-4.12 1.98-4.12 4.31 1.57 4.31 4.12 4.31 4.12-1.98 4.12-4.31Zm5.94-16.54 3.77 1.88v22.11h-3.77V15.38ZM192 24.09l-3.77-1.88v-3.09L192 21v3.09Zm-3.77 15.28H192V26.44l-3.77-1.97v14.9Zm8.87-5.06s1.98 2.14 4.5 2.14c1.54 0 2.83-.44 2.83-1.35 0-.97-.69-1.16-2.95-1.64-2.96-.63-5.54-1.89-5.54-4.72 0-2.33 2.33-4.65 6.41-4.65 3.36 0 5.6 1.82 5.6 1.82l-1.89 2.77s-1.7-1.29-3.71-1.29c-1.42 0-2.7.5-2.7 1.42s1.01 1.13 3.52 1.67c2.95.63 5.06 1.6 5.06 4.69 0 2.55-2.71 4.59-6.51 4.59-4.37 0-6.73-2.7-6.73-2.7l2.11-2.74Z" style="fill:#003c71;stroke-width:0"></path></g></svg>
