<?xml version="1.0" encoding="utf-8"?>
<!-- Generator: Adobe Illustrator 27.6.1, SVG Export Plug-In . SVG Version: 6.00 Build 0)  -->
<svg version="1.1" id="Warstwa_1" xmlns="http://www.w3.org/2000/svg" xmlns:xlink="http://www.w3.org/1999/xlink" x="0px" y="0px"
	 viewBox="0 0 1919.5 950.4" style="enable-background:new 0 0 1919.5 950.4;" xml:space="preserve">
<style type="text/css">
	.st0{fill:#E09131;}
</style>
<g>
	<path class="st0" d="M277.3,42.2C350.6,30.9,422.9,53.7,479.7,99l37.4-38.6C464.4,22.6,399.7,0,329.5,0C153.5,0,0,140.5,0,313.2
		C0,486,153.4,626.5,329.5,626.5c62.2,0,120.2-17.8,169.3-48.2l-26.9-27.7c-26.8,16.8-57.1,28.6-90.3,33.7
		c-141,21.7-259.7-82.2-288.4-231.7C64.4,203.2,136.2,63.9,277.3,42.2z"/>
	<path class="st0" d="M1058.3,449.6c124.5,0,237.8-98,237.8-218.4c0-120.4-113.3-218.4-237.8-218.4c-124.5,0-242.8,98-242.8,218.4
		S933.8,449.6,1058.3,449.6z M990.9,37.3c87.4-26.5,195.8,49.2,224.8,145s-5.3,215.6-92.8,242.1c-87.5,26.5-197.5-44.7-226.5-140.4
		C867.5,188.1,903.4,63.8,990.9,37.3z"/>
	<path class="st0" d="M1918.9,11.4h-36.1l0.3,36.2l0.6,328c0,108.9-76.8,197.5-216.5,197.5c-109.4,0-179-88.6-179-197.4l-0.7-364.3
		h-90.6c0,0-1.2,34-0.7,34l0.6,330.3c0,135.8,131.1,246.3,270.3,246.3c139.2,0,252.4-110.5,252.4-246.3L1918.9,11.4z"/>
	<polygon class="st0" points="697.5,566.2 697.4,8 684.3,7.9 604.5,7.9 604.3,43.5 604.3,594 604.3,630 604.3,630 1298.3,630 
		1298.3,594 697.5,594 	"/>
	<polygon class="st0" points="196.1,786.3 169.6,786.3 169.6,947.2 176.6,947.2 196.1,947.2 268.8,947.2 268.8,924.3 196.1,924.3 	
		"/>
	<rect x="391" y="786.3" class="st0" width="27.1" height="160.9"/>
	<polygon class="st0" points="673.3,911.8 671.1,911.8 590.4,786.3 555.3,786.3 555.3,947.2 581.2,947.2 579.5,817.7 581.7,817.7 
		665.5,947.2 697.5,947.2 697.5,786.3 671.6,786.3 	"/>
	<path class="st0" d="M934.3,795.8c-11.9-6.3-27.1-9.5-45.6-9.5h-27.3h-13.2h-13.4v160.9h13.4h13.2h34.9c7.8,0,15.3-1,22.6-3
		c7.2-2,13.9-5.2,20-9.4c6.1-4.2,11.4-9.5,15.8-16c4.5-6.4,8-14.1,10.6-22.9c2.6-8.9,3.9-19,3.9-30.4c0-16.6-2.8-30.8-8.5-42.5
		C954.9,811.2,946.1,802.1,934.3,795.8z M936.6,897.7c-3.3,8.6-8.4,15.3-15.2,20c-6.8,4.7-15.4,7.1-25.8,7.1h-34.1V808.7h28
		c8.8,0,16.5,1.2,23,3.5c6.6,2.4,12,5.9,16.3,10.6c4.3,4.7,7.5,10.8,9.6,18.2c2.1,7.4,3.2,16.1,3.2,26.2
		C941.6,878.9,939.9,889.1,936.6,897.7z"/>
	<polygon class="st0" points="1127.1,875.8 1205.4,875.8 1205.4,855 1127.1,855 1127.1,808.5 1216.9,808.5 1216.9,786.3 
		1127.1,786.3 1116.2,786.3 1100.6,786.3 1100.6,947.2 1116.2,947.2 1127.1,947.2 1217.1,947.2 1217.1,924.8 1127.1,924.8 	"/>
	<path class="st0" d="M1416.3,887h34.6c-0.8,9.3-3,16.9-6.6,22.9c-3.6,6-8.3,10.5-14.1,13.4c-5.8,2.9-12.8,4.4-21,4.4
		c-6.7,0-12.9-1.1-18.7-3.3c-5.8-2.2-10.7-5.7-14.9-10.5c-4.1-4.8-7.4-11-9.8-18.8c-2.4-7.7-3.5-17.1-3.5-28.2c0-14.3,2-26,5.9-35
		c3.9-9,9.4-15.6,16.5-19.9c7.1-4.2,15.4-6.3,25-6.3c6.5,0,12.6,1.1,18.4,3.4c5.8,2.3,10.5,5.9,14.3,11c3.7,5,5.9,11.6,6.3,19.8
		l25.4-7.6c-0.5-7.8-2.4-14.7-5.7-20.7c-3.3-6-7.8-11.1-13.3-15.4c-5.5-4.2-12-7.5-19.5-9.8c-7.5-2.3-15.8-3.4-25.1-3.4
		c-12.4,0-23.2,1.9-32.6,5.8c-9.4,3.9-17.3,9.5-23.8,16.8c-6.5,7.3-11.4,16.2-14.6,26.6c-3.3,10.4-4.9,22.3-4.9,35.6
		c0,18.4,3,33.7,8.9,45.8c5.9,12.2,14.1,21.3,24.4,27.4c10.3,6.1,22.1,9.1,35.2,9.1c10.2,0,18.9-1.7,25.8-5.1
		c7-3.4,12.7-8.5,17.2-15.4c4.5-6.8,7.8-15.4,10.1-25.6h3.9l-3.2,42.9h20.2v-54.6v-25.8h-61V887z"/>
	<path class="st0" d="M1730.5,804.9c-6.4-7.2-14.1-12.7-23-16.3s-18.9-5.5-30-5.5c-14.1,0-26.7,3.1-37.8,9.4
		c-11.1,6.3-19.8,15.6-26.1,28c-6.3,12.4-9.5,28.1-9.5,46.9c0,12.8,1.6,24.4,4.8,34.6c3.2,10.2,7.9,18.9,14.1,26.1
		c6.3,7.2,13.9,12.6,22.9,16.5c9,3.8,19.4,5.7,31.1,5.7c11.7,0,22.1-1.9,31.1-5.6s16.7-9.2,23-16.3c6.3-7.1,11.1-15.9,14.4-26.2
		c3.2-10.3,4.9-22,4.9-35c0-13.3-1.7-25.2-5.1-35.7C1741.9,821,1736.9,812.2,1730.5,804.9z M1718,900.8c-3.6,8.9-8.8,15.7-15.6,20.4
		s-15.1,7.1-24.9,7.1c-7.3,0-13.9-1.3-19.6-4c-5.8-2.7-10.6-6.6-14.5-11.7s-6.9-11.5-9-19c-2.1-7.6-3.2-16.2-3.2-26
		c0-13.3,1.8-24.5,5.5-33.6c3.7-9.1,8.9-16.1,15.8-20.9c6.9-4.8,15.1-7.2,24.5-7.2c9.8,0,18.1,2.5,25,7.4c6.9,5,12.2,12.1,15.8,21.3
		c3.7,9.3,5.5,20.5,5.5,33.6C1723.3,881,1721.5,891.9,1718,900.8z"/>
</g>
</svg>
