<?xml version="1.0" encoding="UTF-8"?>
<svg id="Warstwa_1" data-name="Warstwa 1" xmlns="http://www.w3.org/2000/svg" width="178.52" height="115" viewBox="0 0 178.52 115">
  <rect x="93.39" y="32.48" width="4.35" height="17.06" transform="translate(136.58 -54.55) rotate(90)" style="fill: #facdc8; stroke-width: 0px;"/>
  <rect x="86.93" y="-7.69" width="4.66" height="163.03" transform="translate(163.09 -15.43) rotate(90)" style="fill: #8fa7d5; stroke-width: 0px;"/>
  <path d="M48.17,63.72h-4.66v-20.22h4.66v20.22ZM104.09,47.03h-17.06v4.66h6.23v12.03h4.66v-12.03h6.17v-4.66ZM68.4,59.06v-15.56h-4.66v20.22h.41s13.56,0,13.56,0v-4.66h-9.31ZM31.02,47.39v-3.89h-13.96v20.22h4.66v-7.45h7.79v-3.73h-7.79v-5.15h9.3ZM135.82,63.77h-4.36l-4.54-7.82h-3v7.77h-4.36v-20.22h9.78c2.98,0,5.49,2.25,5.8,5.22.04.42.07.88.07,1.37,0,5.11-4.06,5.87-4.06,5.87l4.69,7.82ZM128.68,52.72c.48,0,.96-.15,1.33-.46.48-.41.97-1.16.97-2.5,0-.25-.01-.48-.03-.69-.14-1.5-1.27-2.63-2.62-2.63h-4.42v6.29h4.76ZM161.7,43.5l-4.71,7.73-4.66-7.73h-4.61l6.94,10.79v9.42h4.66v-9.42l7.04-10.79h-4.66Z" style="fill: #605753; stroke-width: 0px;"/>
</svg>