<?xml version="1.0" encoding="UTF-8"?>
<svg id="Warstwa_1" data-name="Warstwa 1" xmlns="http://www.w3.org/2000/svg" width="148.32" height="115" xmlns:xlink="http://www.w3.org/1999/xlink" viewBox="0 0 148.32 115">
  <defs>
    <clipPath id="clippath">
      <rect x="12.58" y="22.5" width="123.16" height="70" style="fill: none; stroke-width: 0px;"/>
    </clipPath>
    <clipPath id="clippath-1">
      <rect x="12.58" y="22.5" width="123.16" height="70" style="fill: none; stroke-width: 0px;"/>
    </clipPath>
    <clipPath id="clippath-2">
      <rect x="12.58" y="22.5" width="123.16" height="70" style="fill: none; stroke-width: 0px;"/>
    </clipPath>
    <clipPath id="clippath-3">
      <rect x="12.58" y="22.5" width="123.16" height="70" style="fill: none; stroke-width: 0px;"/>
    </clipPath>
  </defs>
  <polygon points="12.58 39.72 12.58 68.63 32.91 68.63 32.91 63.59 18.05 63.59 18.05 39.72 12.58 39.72" style="fill: #21345c; stroke-width: 0px;"/>
  <rect x="46.71" y="39.72" width="5.41" height="28.97" style="fill: #21345c; stroke-width: 0px;"/>
  <polygon points="88.62 39.66 94.09 39.66 94.09 68.63 90.67 68.63 90.67 68.69 75.44 49.11 75.44 68.63 70.03 68.63 70.03 39.72 74.44 39.72 88.62 57.62 88.62 39.66" style="fill: #21345c; stroke-width: 0px;"/>
  <polygon points="127.91 39.72 116.9 51.9 116.9 39.72 111.43 39.72 111.43 68.63 116.9 68.63 116.9 55.82 129.03 68.63 135.74 68.63 135.74 68.32 121.81 53.71 134.68 39.84 134.68 39.72 127.91 39.72" style="fill: #21345c; stroke-width: 0px;"/>
  <g>
    <g style="clip-path: url(#clippath);">
      <path d="M14.26,90.64h2.67c.68,0,1.74-.25,1.74-1.12,0-.81-.99-1.24-1.74-1.24h-2.67v2.36ZM14.26,86.78h2.67c1.06,0,1.43-.44,1.43-.99,0-.44-.31-1.12-1.43-1.12h-2.67v2.11ZM20.04,85.79c0,.68-.31,1.37-1.18,1.74,1.06.31,1.49,1.49,1.49,2.05,0,2.05-1.55,2.67-3.42,2.67h-4.35v-9.14h4.35c1.8,0,3.11.81,3.11,2.67" style="fill: #21345c; stroke-width: 0px;"/>
    </g>
    <g style="clip-path: url(#clippath-1);">
      <path d="M38.94,83.11v5.22c0,2.67-1.68,4.1-3.98,4.1-2.18,0-4.04-1.31-4.04-4.1v-5.22h1.74v5.22c0,1.62.93,2.55,2.36,2.55s2.24-.93,2.24-2.55v-5.22h1.68Z" style="fill: #21345c; stroke-width: 0px;"/>
    </g>
  </g>
  <polygon points="55.98 83.11 55.98 88.77 51.5 83.11 50.13 83.11 50.13 92.25 51.81 92.25 51.81 86.1 56.66 92.25 56.66 92.25 57.72 92.25 57.72 83.11 55.98 83.11" style="fill: #21345c; stroke-width: 0px;"/>
  <g>
    <g style="clip-path: url(#clippath-2);">
      <path d="M75.19,85.35c-.31-.5-1.18-.99-2.18-.99-1.31,0-1.87.56-1.87,1.24,0,.81.93.99,2.05,1.12,1.93.25,3.67.75,3.67,2.92,0,2.05-1.8,2.92-3.85,2.92-1.87,0-3.29-.56-3.98-2.24l1.43-.75c.44.99,1.49,1.43,2.55,1.43s2.11-.37,2.11-1.37c0-.87-.87-1.24-2.11-1.37-1.87-.25-3.61-.75-3.61-2.8,0-1.87,1.87-2.67,3.54-2.67,1.43,0,2.92.44,3.61,1.8l-1.37.75Z" style="fill: #21345c; stroke-width: 0px;"/>
    </g>
    <g style="clip-path: url(#clippath-3);">
      <path d="M96.26,91.13c-.93.93-2.18,1.37-3.48,1.37-3.42,0-4.85-2.36-4.85-4.72s1.55-4.79,4.85-4.79c1.24,0,2.42.5,3.36,1.37l-1.12,1.12c-.62-.56-1.43-.87-2.18-.87-2.18,0-3.17,1.62-3.17,3.17s.87,3.11,3.17,3.11c.81,0,1.68-.31,2.3-.93l1.12,1.18Z" style="fill: #21345c; stroke-width: 0px;"/>
    </g>
  </g>
  <polygon points="113.17 83.11 113.17 86.97 108.7 86.97 108.7 83.11 106.96 83.11 106.96 92.25 108.7 92.25 108.7 88.58 113.17 88.58 113.17 92.25 114.85 92.25 114.85 83.11 113.17 83.11" style="fill: #21345c; stroke-width: 0px;"/>
  <path d="M130.7,85.04l1.68,3.92h-3.42l1.74-3.92ZM129.77,83.11l-4.1,9.14h1.87l.81-1.74h4.79l.75,1.74h1.87l-4.1-9.14h-1.87Z" style="fill: #21345c; stroke-width: 0px;"/>
  <rect x="46.71" y="22.5" width="47.31" height="2.74" style="fill: #4598cc; stroke-width: 0px;"/>
</svg>